<?xml version="1.0" standalone="no"?>
<!DOCTYPE svg PUBLIC "-//W3C//DTD SVG 20010904//EN"
 "http://www.w3.org/TR/2001/REC-SVG-20010904/DTD/svg10.dtd">
<svg version="1.0" xmlns="http://www.w3.org/2000/svg"
 width="512.000000pt" height="512.000000pt" viewBox="0 0 512.000000 512.000000"
 preserveAspectRatio="xMidYMid meet">

<g transform="translate(0.000000,512.000000) scale(0.100000,-0.100000)"
fill="#000000" stroke="none">
<path d="M2270 4694 c-725 -97 -1362 -568 -1684 -1245 -118 -249 -206 -608
-206 -844 l0 -45 -64 -30 c-160 -76 -274 -222 -305 -394 -15 -82 -15 -1211 0
-1291 36 -193 180 -357 368 -415 56 -18 92 -20 311 -20 l249 0 4 1138 c5 1202
4 1186 51 1372 145 571 599 1028 1167 1175 244 63 554 63 798 0 557 -144 997
-579 1155 -1142 61 -216 59 -175 63 -1410 l4 -1133 249 0 c219 0 255 2 311 20
188 58 332 222 368 415 15 80 15 1209 0 1291 -30 165 -137 309 -287 385 -31
16 -62 29 -68 29 -7 0 -14 40 -18 108 -23 367 -135 715 -328 1021 -354 562
-926 933 -1566 1015 -151 20 -426 19 -572 0z"/>
<path d="M1245 2529 c-38 -11 -94 -64 -111 -106 -12 -26 -14 -201 -14 -950 0
-914 0 -917 21 -961 76 -155 311 -123 348 48 15 69 15 1766 0 1830 -26 112
-132 172 -244 139z"/>
<path d="M3740 2525 c-46 -21 -68 -42 -94 -90 -21 -40 -21 -42 -24 -930 -2
-601 1 -906 8 -939 14 -65 52 -114 108 -138 91 -41 199 -3 241 85 l21 44 -2
930 -3 929 -24 36 c-13 19 -39 45 -57 57 -42 29 -127 37 -174 16z"/>
</g>
</svg>
